<svg xmlns="http://www.w3.org/2000/svg" width="325" height="73" viewBox="0 0 325 73"><path data-name="Контур 2205" d="M33.3 0A33.3 33.3 0 110 33.3C0 16.289 11.652 2.452 28.359.415L33.3 0s4.832 8.325.317 8.39S21.884 10.189 18 14.779s-4 12.688-4 12.688-3.447-.317-4.584 1a2.579 2.579 0 000 3.232A9.2 9.2 0 0011 32.8a45.636 45.636 0 003 11.869 22.832 22.832 0 007 8.638 24.67 24.67 0 0012.3 3.6 27.286 27.286 0 0012.726-3.6 23.754 23.754 0 007.115-8.638A38.26 38.26 0 0056 32.8a6.433 6.433 0 001.738-1.1 2.624 2.624 0 000-3.232c-.984-1.126-4.738-1-4.738-1s.05-8.1-3.856-12.688-10.155-6.267-15.837-6.39S33.3 0 33.3 0z" fill="#695efc"/><g data-name="Сгруппировать 908"><text transform="translate(75)" fill="#695efc" font-size="55" font-family="SegoeUI-Bold, Segoe UI" font-weight="700"><tspan x="0" y="59">CitaDeal</tspan></text><path data-name="Контур 2184" d="M85.238 18.91A20.855 20.855 0 0195.3 15.194a15.022 15.022 0 00-7.648 3.716c-3.503 3.234-7.972 8.29-7.972 16.499a21.249 21.249 0 007.972 16.723 15.635 15.635 0 007.641 3.733s-6.139-.648-10.055-3.733a20.624 20.624 0 01-8.008-16.723 19.566 19.566 0 018.008-16.499z" fill="#5153f7"/><path data-name="Контур 2185" d="M116.574 20.664a5.546 5.546 0 01-.26-2.673 5.221 5.221 0 011.034-2.191 5.1 5.1 0 011.963-1.436 7.185 7.185 0 011.445-.4 5.9 5.9 0 011.85.105 7.6 7.6 0 00-2.875 2.49 4.766 4.766 0 00-.737 3.428 9.08 9.08 0 001.535 3.761 7.3 7.3 0 01-2.238-.915 4.463 4.463 0 01-1.717-2.169z" fill="#5153f7"/><path data-name="Прямоугольник 558" fill="#5153f7" d="M116.9 27.63h2v27.36h-2z"/><path data-name="Прямоугольник 559" fill="#5153f7" d="M129.68 27.63h2v6.74h-2z"/><path data-name="Прямоугольник 560" fill="#5153f7" d="M134 20.42h2v7.2h-2z"/><path data-name="Контур 2186" d="M134.1 34.38h2s-.092 5.33 0 10.383a27.18 27.18 0 00.688 5.908 13.367 13.367 0 002.8 4.382 7.052 7.052 0 01-3.488-2.181 7.186 7.186 0 01-1.465-2.754 17.772 17.772 0 01-.535-4.756z" fill="#5153f7"/><path data-name="Прямоугольник 561" fill="#5153f7" d="M185.18 16.07h2V55h-2z"/><path data-name="Контур 2187" d="M156.636 39.917s-3.074 3.677-3.056 7.359 3.127 7.366 3.127 7.366a8.495 8.495 0 01-3.9-3.5 7.442 7.442 0 01-.957-3.566 8.512 8.512 0 01.95-4.377 10.45 10.45 0 013.836-3.282z" fill="#5153f7"/><path data-name="Контур 2188" d="M160.031 27.484s-3.094 1.776-3.32 3.858a11.928 11.928 0 001.021 4.9l-1.883-1.933-2.668-2.967a15.338 15.338 0 012.979-2.234 22.781 22.781 0 013.871-1.624z" fill="#5153f7"/><path data-name="Контур 2189" d="M164.459 33.42a5.741 5.741 0 012.232.338 3.987 3.987 0 011.928 1.314 4.211 4.211 0 01.806 2.791h1.194a5.4 5.4 0 00-.987-3.145 3.819 3.819 0 00-2.105-1.4 7.583 7.583 0 00-3.068.102z" fill="#5153f7"/><path data-name="Контур 2190" d="M165.283 49.552a6.149 6.149 0 002.7-1.275 4.289 4.289 0 001.544-2.618 9.06 9.06 0 00.173-2.601h1.151a7.758 7.758 0 01-.283 3.613 4.332 4.332 0 01-2.252 2.487 6.57 6.57 0 01-3.033.394z" fill="#5153f7"/><path data-name="Контур 2191" d="M169.729 52.1l1.043-.633.457 3.533h-1.5z" fill="#5153f7"/><path data-name="Контур 2192" d="M98.696 47.428a16.418 16.418 0 003.903-.756 9.419 9.419 0 002.6-1.563 5.572 5.572 0 001.525-1.661l1.073 1.004a10.21 10.21 0 01-2.598 2.367 7.429 7.429 0 01-3.51 1.006 9.888 9.888 0 01-2.993-.397z" fill="#5153f7"/><path data-name="Контур 2193" d="M97.785 23.535a12.606 12.606 0 013.868.405 7.858 7.858 0 012.62 1.084 10.362 10.362 0 012.246 2.065l.983-.966a6.762 6.762 0 00-2.63-2.275 7.888 7.888 0 00-4.076-.789 8.82 8.82 0 00-3.011.476z" fill="#5153f7"/><path data-name="Контур 2194" d="M202.84 24.428a14.782 14.782 0 015.483 2.424c2.334 1.906 2.99 4.817 2.99 9.103s-1.4 6.579-2.99 8.04-6.027 2.672-5.483 2.516 4.838-.339 7.658-3.137 2.506-7.42 2.506-7.42.432-5.745-2.503-8.716-7.117-2.713-7.66-2.81z" fill="#5153f7"/><path data-name="Контур 2195" d="M262.781 39.917s-3.074 3.677-3.056 7.359 3.127 7.366 3.127 7.366a8.495 8.495 0 01-3.9-3.5 7.442 7.442 0 01-.957-3.566 8.512 8.512 0 01.95-4.377 10.45 10.45 0 013.836-3.282z" fill="#5153f7"/><path data-name="Контур 2196" d="M266.176 27.484s-3.094 1.776-3.32 3.858a11.928 11.928 0 001.021 4.9l-1.883-1.933-2.668-2.967a15.338 15.338 0 012.979-2.234 22.781 22.781 0 013.871-1.624z" fill="#5153f7"/><path data-name="Контур 2197" d="M270.604 33.42a5.741 5.741 0 012.232.338 3.987 3.987 0 011.928 1.314 4.211 4.211 0 01.806 2.791h1.194a5.4 5.4 0 00-.987-3.145 3.819 3.819 0 00-2.105-1.4 7.583 7.583 0 00-3.068.102z" fill="#5153f7"/><path data-name="Контур 2198" d="M271.428 49.552a6.149 6.149 0 002.7-1.275 4.289 4.289 0 001.544-2.618 9.06 9.06 0 00.173-2.601h1.151a7.758 7.758 0 01-.283 3.613 4.332 4.332 0 01-2.252 2.487 6.57 6.57 0 01-3.033.394z" fill="#5153f7"/><path data-name="Контур 2199" d="M275.873 52.1l1.043-.633.457 3.533h-1.5z" fill="#5153f7"/><path data-name="Прямоугольник 562" fill="#5153f7" d="M290.9 13.43h2v41.55h-2z"/><path data-name="Контур 2200" d="M239.103 26.796a15.613 15.613 0 00-7.396 4.996 16.385 16.385 0 00-3.339 9.586 14.255 14.255 0 002.7 9.026c2.52 3.578 7.379 5.284 7.379 5.284s-5.678-.588-8.813-4.166a13.977 13.977 0 01-3.724-10.145 15.2 15.2 0 014.299-10.661c3.315-3.548 8.894-3.92 8.894-3.92z" fill="#5153f7"/><path data-name="Контур 2201" d="M241.291 32.93a6.289 6.289 0 012.424.7 4.8 4.8 0 011.812 1.923 8.455 8.455 0 01.579 2.618h1.5a10.641 10.641 0 00-.623-2.618 4.7 4.7 0 00-2.6-2.3 8.447 8.447 0 00-3.092-.323z" fill="#5153f7"/><path data-name="Контур 2202" d="M240.024 48.912a8.459 8.459 0 002.68-.098 6.571 6.571 0 002.662-1.063 5.945 5.945 0 001.714-1.671l1.114.711a6.512 6.512 0 01-2.177 2.023 5.633 5.633 0 01-3.065.667 23.077 23.077 0 01-2.928-.569z" fill="#5153f7"/></g><path data-name="Контур 2206" d="M18 28.146s-.543-8.043 3.748-11.941c2.873-2.612 8.425-3.591 12.041-3.591s8.308.652 11.345 3.591C48.828 19.777 49 28.145 49 28.145H18z" fill="#695efc"/></svg>