<svg xmlns="http://www.w3.org/2000/svg" width="54" height="49.856" viewBox="0 0 54 49.856"><g data-name="Сгруппировать 2642" transform="translate(-320 -3946.344)" fill="#4239bc"><path data-name="Контур 2645" d="M325.666 3960.535a30.138 30.138 0 005.772-5.187 30.355 30.355 0 004.153-6.991s2.349-1.03 3.953-1.533a8.465 8.465 0 012.46-.48s.968 1.787 1.09 8.084-.588 15.977-.588 15.977-.123 19.366-.015 21.2a6.88 6.88 0 00.967 3.124l13.125-.224s.132-.085 1.045.555-.159.659-.159.659-5.19-.03-11.391.1c-4.187.086-8.937.331-12.679.365-8.952.08-11.737-.143-11.737-.143a2.241 2.241 0 01-1.543-.671c-.547-.661.963-.495.963-.495l6.158.216 7.333-.217a37.479 37.479 0 00.538-7.677c.02-5.6-.8-7.979-.459-14.72s.347-7.426.554-12.508.276-7.819.276-7.819a26.151 26.151 0 01-3.577 5.026 37.5 37.5 0 01-5.217 4.486.806.806 0 01-1.022-.342c-.452-.633 0-.785 0-.785z"/><circle data-name="Эллипс 100" cx="5" cy="5" r="5" transform="translate(364 3986)"/></g></svg>