<svg xmlns="http://www.w3.org/2000/svg" width="56" height="50" viewBox="0 0 56 50"><g data-name="Сгруппировать 2643" transform="translate(-1228 -4482)" fill="#4239bc"><circle data-name="Эллипс 101" cx="5" cy="5" transform="translate(1274 4522)" r="5"/><path data-name="Контур 2650" d="M1239.001 4484.473a21.934 21.934 0 0113.131-2.257s4.846.389 7.6 8.134a14.2 14.2 0 01-2.357 13.527 48.49 48.49 0 01-4.676 5.064c-2.465 2.4-6.752 6.016-8.738 8.4a66.068 66.068 0 00-7.485 11.543 110.285 110.285 0 0116.324-2.247 35.968 35.968 0 0112.127 1.554s1.2.161 1.063 1.017-1.369.816-1.369.816a29.869 29.869 0 00-10.387-1.5c-6.564.035-19.725 2.627-19.725 2.627a8.448 8.448 0 01-2.435.676 28.743 28.743 0 01-3.649.174s-1.148-1.4.334-5.224 7.981-10.061 7.981-10.061l5.959-7.415 8.095-11.29s3.754-5.756 2.536-9.743-5.852-4.492-5.852-4.492a18.988 18.988 0 00-8.983 3.489c-4.847 3.312-5.047 6.457-5.047 6.457s-.078.924-1.115.329a1.109 1.109 0 01-.616-1.454s.617-4.621 7.284-8.124z"/></g></svg>