<svg xmlns="http://www.w3.org/2000/svg" width="54" height="50" viewBox="0 0 54 50"><g data-name="Сгруппировать 2644" transform="translate(-320 -5301.469)" fill="#4239bc"><path data-name="Контур 2724" d="M324.016 5307.446a39.148 39.148 0 0116.915-5.881c9.855-.967 9.347 5.7 9.347 5.7s.677 2.655-2.106 5.682-9.027 6.429-9.027 6.429a24.817 24.817 0 0111.894 3.324c5.711 3.432 6.915 9.936 6.915 9.936a15.372 15.372 0 01-4.18 11.482c-4.969 5.445-15.148 6.869-15.148 6.869s-8.632 1.5-13.983-.763-4.612-4.871-4.612-4.871-.15-.728.874-.552 1.035.953 1.035.953-.426 2.015 3.2 3.5 10.286.883 10.286.883a26.7 26.7 0 008.639-6.837c3.286-4.1 4.926-8.442 3.893-13.968-.538-2.879-5.037-5.56-8.233-6.631a18.152 18.152 0 00-6.373-.827 12.79 12.79 0 00-3.091.438 9.409 9.409 0 00-2.546 1.265s-.409-.1-.524-.317.063-.559.063-.559a13.45 13.45 0 011.777-1.5 17.985 17.985 0 012.2-1.264s6.98-5.789 8.889-8.222a9.216 9.216 0 002.1-4.084s.664-3.658-4.069-3.845-12.453 4.447-12.453 4.447a1.537 1.537 0 01-1.545.073c-.873-.427-.137-.86-.137-.86z"/><circle data-name="Эллипс 102" cx="5" cy="5" r="5" transform="translate(364 5341)"/></g></svg>