<svg xmlns="http://www.w3.org/2000/svg" width="56.674" height="50" viewBox="0 0 56.674 50"><g data-name="Сгруппировать 2645" transform="translate(-1227.326 -5874.195)" fill="#4239bc"><circle data-name="Эллипс 103" cx="5" cy="5" transform="translate(1274 5914)" r="5"/><path data-name="Контур 2725" d="M1227.326 5878.036l6.653-2.036a5.583 5.583 0 011.7-.275 2.62 2.62 0 011.288.44v14.232c0 2.24.52 3.746.613 5.513a21.947 21.947 0 010 2.812s3.371-1.122 7.114-1.922a66.52 66.52 0 017.228-1.1s.224-7.889.106-12.722a34.143 34.143 0 00-.576-6.608 22.032 22.032 0 002.678-.678 24.488 24.488 0 014.23-1.466c1.187-.167 1.412.41 1.412.41a20.38 20.38 0 01.558 6.421c-.246 3.665-1.082 9.683-1.185 11.52a19.928 19.928 0 000 2.84s1.931.084 3.162.2a11.158 11.158 0 011.763.269s1.431.534 1.237.851-1.237.062-1.237.062-1.24-.1-2.471-.15-2.454-.043-2.454-.043-.672 8.012-.939 11.892a73.491 73.491 0 00.309 10.076 18.651 18.651 0 01-.547 5.619 11 11 0 01-4.348-.872 3.537 3.537 0 01-1.625-2.6 8.5 8.5 0 01-.127-2.15c.014-1.734.2-3.22.184-4.784-.033-3.057-.206-6.834-.214-9.557-.018-5.907.086-7.138.086-7.138a76.146 76.146 0 00-9.128 1.83c-4.214 1.184-6.466 2.414-9.9 3.6a21.13 21.13 0 01-4.233 1.215 31.686 31.686 0 001.3-11.561 73.555 73.555 0 00-2.637-14.14z"/></g></svg>