<svg xmlns="http://www.w3.org/2000/svg" width="69.29" height="82.208" viewBox="0 0 69.29 82.208"><g data-name="Сгруппировать 1" fill="#fff"><path data-name="Контур 1" d="M21.518 19.503a23.142 23.142 0 015.412 1.232c3.47 1 7.428 2.877 8.467 2.772s4.56-1.771 8.025-2.772a35.85 35.85 0 015.837-1.232 27.179 27.179 0 0110.518 2.073 18.309 18.309 0 017.3 6.128s-10.764 6.93-9.064 17.993a18.731 18.731 0 0011.275 14.5 60.038 60.038 0 01-6.385 12.842c-3.858 5.486-6.2 6.951-8.771 8.2a11.45 11.45 0 01-7.931.243c-1.937-.651-4.567-1.871-6.114-2.2a9.5 9.5 0 00-3.257-.408 12.8 12.8 0 00-4.583.538c-2.021.57-3.96 1.269-6.2 2.111a10.634 10.634 0 01-4.94.615C18.201 81.81 11.095 78.067 4.236 63.1S.917 37.2.917 37.2a23.639 23.639 0 017.275-12.55c5.959-5.077 11.197-5.404 13.326-5.147z"/><path data-name="Контур 2" d="M39.128 6.336A19.734 19.734 0 0151.858 0a18.1 18.1 0 01-4.449 13.512 16.032 16.032 0 01-12.646 5.982 17.476 17.476 0 014.365-13.158z"/></g></svg>