<svg xmlns="http://www.w3.org/2000/svg" width="69.29" height="82.208" viewBox="0 0 69.29 82.208">
  <g id="Сгруппировать_1" data-name="Сгруппировать 1" transform="translate(-4162.797 -2252.088)">
    <path id="Контур_1" data-name="Контур 1" d="M14.315-6.552A23.142,23.142,0,0,1,19.727-5.32c3.47,1,7.428,2.877,8.467,2.772s4.56-1.771,8.025-2.772a35.85,35.85,0,0,1,5.837-1.232A27.179,27.179,0,0,1,52.574-4.479a18.309,18.309,0,0,1,7.3,6.128s-10.764,6.93-9.064,17.993a18.731,18.731,0,0,0,11.275,14.5A60.038,60.038,0,0,1,55.7,46.984c-3.858,5.486-6.2,6.951-8.771,8.2a11.45,11.45,0,0,1-7.931.243c-1.937-.651-4.567-1.871-6.114-2.2a9.5,9.5,0,0,0-3.257-.408,12.8,12.8,0,0,0-4.583.538c-2.021.57-3.96,1.269-6.2,2.111a10.634,10.634,0,0,1-4.94.615c-2.906-.328-10.012-4.071-16.871-19.038s-3.319-25.9-3.319-25.9A23.639,23.639,0,0,1,.989-1.405C6.948-6.482,12.186-6.809,14.315-6.552Z" transform="translate(4170 2278.143)" fill="#fff"/>
    <path id="Контур_2" data-name="Контур 2" d="M3.453,5.424A19.734,19.734,0,0,1,16.183-.912,18.1,18.1,0,0,1,11.734,12.6,16.032,16.032,0,0,1-.912,18.582,17.476,17.476,0,0,1,3.453,5.424Z" transform="translate(4198.472 2253)" fill="#fff"/>
  </g>
</svg>
