<svg xmlns="http://www.w3.org/2000/svg" width="66.604" height="66.604" viewBox="0 0 66.604 66.604">
  <path id="Контур_2205" data-name="Контур 2205" d="M33.3,0A33.3,33.3,0,1,1,0,33.3C0,16.289,11.652,2.452,28.359.415L33.3,0s4.832,8.325.317,8.39S21.884,10.189,18,14.779s-4,12.688-4,12.688-3.447-.317-4.584,1a2.579,2.579,0,0,0,0,3.232A9.2,9.2,0,0,0,11,32.8a45.636,45.636,0,0,0,3,11.869,22.832,22.832,0,0,0,7,8.638,24.67,24.67,0,0,0,12.3,3.6,27.286,27.286,0,0,0,12.726-3.6,23.754,23.754,0,0,0,7.115-8.638A38.26,38.26,0,0,0,56,32.8,6.433,6.433,0,0,0,57.738,31.7a2.624,2.624,0,0,0,0-3.232c-.984-1.126-4.738-1-4.738-1s.05-8.1-3.856-12.688S38.989,8.513,33.307,8.39,33.3,0,33.3,0Z" fill="#695efc"/>
</svg>
