<svg id="Сгруппировать_2" data-name="Сгруппировать 2" xmlns="http://www.w3.org/2000/svg" width="71.699" height="89" viewBox="0 0 71.699 89">
  <path id="Контур_3" data-name="Контур 3" d="M1.665.768,42.777,41.839,1.665,83.325Z" transform="translate(-1.665 2.446)" fill="#fff"/>
  <path id="Контур_4" data-name="Контур 4" d="M-10.413,5.033a7.641,7.641,0,0,1,2.3,0,3.286,3.286,0,0,1,1.56.838l47.52,30.208L30.637,46.214Z" transform="translate(13.733 -4.94)" fill="#fff"/>
  <path id="Контур_5" data-name="Контур 5" d="M-10.413,46.121a7.641,7.641,0,0,0,2.3,0,3.286,3.286,0,0,0,1.56-.838l47.52-30.208L30.637,4.94Z" transform="translate(13.733 42.786)" fill="#fff"/>
  <path id="Контур_6" data-name="Контур 6" d="M-2.448,9.325,8.411-1.8l11.8,7.579a4.292,4.292,0,0,1,1.44,3.4,4.923,4.923,0,0,1-1.44,3.588l-11.8,7.6Z" transform="translate(50.045 35.05)" fill="#fff"/>
</svg>
