<svg xmlns="http://www.w3.org/2000/svg" width="325" height="73" viewBox="0 0 325 73">
  <g id="LOGO" transform="translate(-28 -52)">
    <path id="Контур_2205" data-name="Контур 2205" d="M33.3,0A33.3,33.3,0,1,1,0,33.3C0,16.289,11.652,2.452,28.359.415L33.3,0s4.832,8.325.317,8.39S21.884,10.189,18,14.779s-4,12.688-4,12.688-3.447-.317-4.584,1a2.579,2.579,0,0,0,0,3.232A9.2,9.2,0,0,0,11,32.8a45.636,45.636,0,0,0,3,11.869,22.832,22.832,0,0,0,7,8.638,24.67,24.67,0,0,0,12.3,3.6,27.286,27.286,0,0,0,12.726-3.6,23.754,23.754,0,0,0,7.115-8.638A38.26,38.26,0,0,0,56,32.8,6.433,6.433,0,0,0,57.738,31.7a2.624,2.624,0,0,0,0-3.232c-.984-1.126-4.738-1-4.738-1s.05-8.1-3.856-12.688S38.989,8.513,33.307,8.39,33.3,0,33.3,0Z" transform="translate(28 52)" fill="#695efc"/>
    <g id="Сгруппировать_908" data-name="Сгруппировать 908" transform="translate(9 10)">
      <text id="CitaDeal" transform="translate(94 42)" fill="#695efc" font-size="55" font-family="SegoeUI-Bold, Segoe UI" font-weight="700"><tspan x="0" y="59">CitaDeal</tspan></text>
      <path id="Контур_2184" data-name="Контур 2184" d="M4.238-.09A20.855,20.855,0,0,1,14.3-3.806,15.022,15.022,0,0,0,6.652-.09C3.149,3.144-1.32,8.2-1.32,16.409A21.249,21.249,0,0,0,6.652,33.132a15.635,15.635,0,0,0,7.641,3.733s-6.139-.648-10.055-3.733A20.624,20.624,0,0,1-3.77,16.409,19.566,19.566,0,0,1,4.238-.09Z" transform="translate(100 61)" fill="#5153f7"/>
      <path id="Контур_2185" data-name="Контур 2185" d="M10.234,1.664a5.546,5.546,0,0,1-.26-2.673A5.221,5.221,0,0,1,11.008-3.2a5.1,5.1,0,0,1,1.963-1.436,7.185,7.185,0,0,1,1.445-.4,5.9,5.9,0,0,1,1.85.105,7.6,7.6,0,0,0-2.875,2.49A4.766,4.766,0,0,0,12.654.987a9.08,9.08,0,0,0,1.535,3.761,7.3,7.3,0,0,1-2.238-.915A4.463,4.463,0,0,1,10.234,1.664Z" transform="translate(125.34 61)" fill="#5153f7"/>
      <rect id="Прямоугольник_558" data-name="Прямоугольник 558" width="2" height="27.36" transform="translate(135.9 69.63)" fill="#5153f7"/>
      <rect id="Прямоугольник_559" data-name="Прямоугольник 559" width="2" height="6.74" transform="translate(148.68 69.63)" fill="#5153f7"/>
      <rect id="Прямоугольник_560" data-name="Прямоугольник 560" width="2" height="7.2" transform="translate(153 62.42)" fill="#5153f7"/>
      <path id="Контур_2186" data-name="Контур 2186" d="M0,0H2S1.908,5.33,2,10.383a27.18,27.18,0,0,0,.688,5.908,13.367,13.367,0,0,0,2.8,4.382A7.052,7.052,0,0,1,2,18.492,7.186,7.186,0,0,1,.535,15.738,17.772,17.772,0,0,1,0,10.982Z" transform="translate(153.1 76.38)" fill="#5153f7"/>
      <rect id="Прямоугольник_561" data-name="Прямоугольник 561" width="2" height="38.93" transform="translate(204.18 58.07)" fill="#5153f7"/>
      <path id="Контур_2187" data-name="Контур 2187" d="M3.736,3.287S.662,6.964.68,10.646s3.127,7.366,3.127,7.366a8.495,8.495,0,0,1-3.9-3.5,7.442,7.442,0,0,1-.957-3.566A8.512,8.512,0,0,1-.1,6.569,10.45,10.45,0,0,1,3.736,3.287Z" transform="translate(171.9 78.63)" fill="#5153f7"/>
      <path id="Контур_2188" data-name="Контур 2188" d="M5.131,2.854S2.037,4.63,1.811,6.712a11.928,11.928,0,0,0,1.021,4.9L.949,9.679-1.719,6.712A15.338,15.338,0,0,1,1.26,4.478,22.781,22.781,0,0,1,5.131,2.854Z" transform="translate(173.9 66.63)" fill="#5153f7"/>
      <path id="Контур_2189" data-name="Контур 2189" d="M-4.441,2.79a5.741,5.741,0,0,1,2.232.338A3.987,3.987,0,0,1-.281,4.442,4.211,4.211,0,0,1,.525,7.233H1.719A5.4,5.4,0,0,0,.732,4.088a3.819,3.819,0,0,0-2.105-1.4A7.583,7.583,0,0,0-4.441,2.79Z" transform="translate(187.9 72.63)" fill="#5153f7"/>
      <path id="Контур_2190" data-name="Контур 2190" d="M-4.617,8.922a6.149,6.149,0,0,0,2.7-1.275A4.289,4.289,0,0,0-.373,5.029,9.06,9.06,0,0,0-.2,2.428H.951A7.758,7.758,0,0,1,.668,6.041,4.332,4.332,0,0,1-1.584,8.528,6.57,6.57,0,0,1-4.617,8.922Z" transform="translate(188.9 82.63)" fill="#5153f7"/>
      <path id="Контур_2191" data-name="Контур 2191" d="M0,0,1.043-.633,1.5,2.9H0Z" transform="translate(188.729 94.1)" fill="#5153f7"/>
      <path id="Контур_2192" data-name="Контур 2192" d="M-3.637,11.119A16.418,16.418,0,0,0-1.356,7.863,9.419,9.419,0,0,0-.573,4.932,5.572,5.572,0,0,0-.631,2.678L.838,2.654A10.211,10.211,0,0,1,.615,6.162,7.429,7.429,0,0,1-1.21,9.325,9.888,9.888,0,0,1-3.637,11.119Z" transform="matrix(0.719, 0.695, -0.695, 0.719, 128.039, 83.961)" fill="#5153f7"/>
      <path id="Контур_2193" data-name="Контур 2193" d="M-.71-.151a12.606,12.606,0,0,1,2.5,2.98,7.858,7.858,0,0,1,1.13,2.6A10.362,10.362,0,0,1,3.1,8.475l1.378-.011A6.762,6.762,0,0,0,4.169,5,7.888,7.888,0,0,0,1.786,1.6,8.821,8.821,0,0,0-.71-.151Z" transform="matrix(0.719, -0.695, 0.695, 0.719, 117.4, 65.15)" fill="#5153f7"/>
      <path id="Контур_2194" data-name="Контур 2194" d="M-3.546-3.879A14.782,14.782,0,0,1,2.191-2.141C4.74-.534,5.746,2.276,6.268,6.53s-.588,6.7-1.988,8.345S-1.376,18.261-.855,18.04s4.761-.926,7.219-4.047,1.583-7.67,1.583-7.67S7.675.568,4.4-2.023-2.994-3.849-3.546-3.879Z" transform="translate(224.887 70.71) rotate(7)" fill="#5153f7"/>
      <path id="Контур_2195" data-name="Контур 2195" d="M3.736,3.287S.662,6.964.68,10.646s3.127,7.366,3.127,7.366a8.495,8.495,0,0,1-3.9-3.5,7.442,7.442,0,0,1-.957-3.566A8.512,8.512,0,0,1-.1,6.569,10.45,10.45,0,0,1,3.736,3.287Z" transform="translate(278.045 78.63)" fill="#5153f7"/>
      <path id="Контур_2196" data-name="Контур 2196" d="M5.131,2.854S2.037,4.63,1.811,6.712a11.928,11.928,0,0,0,1.021,4.9L.949,9.679-1.719,6.712A15.338,15.338,0,0,1,1.26,4.478,22.781,22.781,0,0,1,5.131,2.854Z" transform="translate(280.045 66.63)" fill="#5153f7"/>
      <path id="Контур_2197" data-name="Контур 2197" d="M-4.441,2.79a5.741,5.741,0,0,1,2.232.338A3.987,3.987,0,0,1-.281,4.442,4.211,4.211,0,0,1,.525,7.233H1.719A5.4,5.4,0,0,0,.732,4.088a3.819,3.819,0,0,0-2.105-1.4A7.583,7.583,0,0,0-4.441,2.79Z" transform="translate(294.045 72.63)" fill="#5153f7"/>
      <path id="Контур_2198" data-name="Контур 2198" d="M-4.617,8.922a6.149,6.149,0,0,0,2.7-1.275A4.289,4.289,0,0,0-.373,5.029,9.06,9.06,0,0,0-.2,2.428H.951A7.758,7.758,0,0,1,.668,6.041,4.332,4.332,0,0,1-1.584,8.528,6.57,6.57,0,0,1-4.617,8.922Z" transform="translate(295.045 82.63)" fill="#5153f7"/>
      <path id="Контур_2199" data-name="Контур 2199" d="M0,0,1.043-.633,1.5,2.9H0Z" transform="translate(294.873 94.1)" fill="#5153f7"/>
      <rect id="Прямоугольник_562" data-name="Прямоугольник 562" width="2" height="41.55" transform="translate(309.9 55.43)" fill="#5153f7"/>
      <path id="Контур_2200" data-name="Контур 2200" d="M-3.542,23.141a15.613,15.613,0,0,0,7.95-4.058A16.385,16.385,0,0,0,8.89,9.976,14.255,14.255,0,0,0,7.31.688C5.246-3.17.631-5.456.631-5.456S6.195-4.18,8.87-.247A13.977,13.977,0,0,1,11.33,10.276,15.2,15.2,0,0,1,5.764,20.334C2.041,23.452-3.542,23.141-3.542,23.141Z" transform="translate(257.408 92.196) rotate(173)" fill="#5153f7"/>
      <path id="Контур_2201" data-name="Контур 2201" d="M-4.754,2.3A6.289,6.289,0,0,1-2.33,3,4.8,4.8,0,0,1-.518,4.923,8.455,8.455,0,0,1,.061,7.541h1.5A10.641,10.641,0,0,0,.938,4.923a4.7,4.7,0,0,0-2.6-2.3A8.447,8.447,0,0,0-4.754,2.3Z" transform="translate(265.045 72.63)" fill="#5153f7"/>
      <path id="Контур_2202" data-name="Контур 2202" d="M-4.966,8.55A8.459,8.459,0,0,0-2.8,6.97,6.571,6.571,0,0,0-1.186,4.6,5.945,5.945,0,0,0-.7,2.256L.621,2.223A6.512,6.512,0,0,1-.052,5.117,5.633,5.633,0,0,1-2.221,7.384,23.077,23.077,0,0,1-4.966,8.55Z" transform="translate(267.922 86.601) rotate(34)" fill="#5153f7"/>
    </g>
    <path id="Контур_2206" data-name="Контур 2206" d="M-4.227,12.062S-4.77,4.019-.479.121C2.394-2.491,7.946-3.47,11.562-3.47S19.87-2.818,22.907.121c3.694,3.572,3.866,11.94,3.866,11.94h-31Z" transform="translate(50.227 68.084)" fill="#695efc"/>
  </g>
</svg>
