<svg xmlns="http://www.w3.org/2000/svg" width="54" height="49.856" viewBox="0 0 54 49.856">
  <g id="Сгруппировать_2642" data-name="Сгруппировать 2642" transform="translate(-320 -3946.344)">
    <path id="Контур_2645" data-name="Контур 2645" d="M-3.507-9.67a30.138,30.138,0,0,0,5.772-5.187,30.355,30.355,0,0,0,4.153-6.991s2.349-1.03,3.953-1.533a8.465,8.465,0,0,1,2.46-.48s.968,1.787,1.09,8.084S13.333.2,13.333.2,13.21,19.566,13.318,21.4a6.88,6.88,0,0,0,.967,3.124L27.41,24.3s.132-.085,1.045.555-.159.659-.159.659-5.19-.03-11.391.1c-4.187.086-8.937.331-12.679.365-8.952.08-11.737-.143-11.737-.143a2.241,2.241,0,0,1-1.543-.671c-.547-.661.963-.495.963-.495l6.158.216L5.4,24.669a37.479,37.479,0,0,0,.538-7.677c.02-5.6-.8-7.979-.459-14.72s.347-7.426.554-12.508.276-7.819.276-7.819a26.151,26.151,0,0,1-3.577,5.026A37.5,37.5,0,0,1-2.485-8.543a.806.806,0,0,1-1.022-.342C-3.959-9.518-3.507-9.67-3.507-9.67Z" transform="translate(329.173 3970.205)" fill="#4239bc"/>
    <circle id="Эллипс_100" data-name="Эллипс 100" cx="5" cy="5" r="5" transform="translate(364 3986)" fill="#4239bc"/>
  </g>
</svg>
