<svg xmlns="http://www.w3.org/2000/svg" width="56" height="50" viewBox="0 0 56 50">
  <g id="Сгруппировать_2643" data-name="Сгруппировать 2643" transform="translate(-1228 -4482)">
    <ellipse id="Эллипс_101" data-name="Эллипс 101" cx="5" cy="5" rx="5" ry="5" transform="translate(1274 4522)" fill="#4239bc"/>
    <path id="Контур_2650" data-name="Контур 2650" d="M5.553-12.955a21.934,21.934,0,0,1,13.131-2.257s4.846.389,7.6,8.134A14.2,14.2,0,0,1,23.927,6.449a48.49,48.49,0,0,1-4.676,5.064c-2.465,2.4-6.752,6.016-8.738,8.4A66.068,66.068,0,0,0,3.028,31.456a110.285,110.285,0,0,1,16.324-2.247,35.968,35.968,0,0,1,12.127,1.554s1.2.161,1.063,1.017-1.369.816-1.369.816a29.869,29.869,0,0,0-10.387-1.5c-6.564.035-19.725,2.627-19.725,2.627a8.448,8.448,0,0,1-2.435.676,28.743,28.743,0,0,1-3.649.174s-1.148-1.4.334-5.224S3.292,19.288,3.292,19.288l5.959-7.415L17.346.583S21.1-5.173,19.882-9.16s-5.852-4.492-5.852-4.492a18.988,18.988,0,0,0-8.983,3.489C.2-6.851,0-3.706,0-3.706s-.078.924-1.115.329a1.109,1.109,0,0,1-.616-1.454S-1.114-9.452,5.553-12.955Z" transform="translate(1233.448 4497.428)" fill="#4239bc"/>
  </g>
</svg>
