<svg xmlns="http://www.w3.org/2000/svg" width="54" height="50" viewBox="0 0 54 50">
  <g id="Сгруппировать_2644" data-name="Сгруппировать 2644" transform="translate(-320 -5301.469)">
    <path id="Контур_2724" data-name="Контур 2724" d="M5.285,3.446A39.148,39.148,0,0,1,22.2-2.435c9.855-.967,9.347,5.7,9.347,5.7s.677,2.655-2.106,5.682-9.027,6.429-9.027,6.429A24.817,24.817,0,0,1,32.308,18.7c5.711,3.432,6.915,9.936,6.915,9.936a15.372,15.372,0,0,1-4.18,11.482c-4.969,5.445-15.148,6.869-15.148,6.869s-8.632,1.5-13.983-.763S1.3,41.353,1.3,41.353s-.15-.728.874-.552,1.035.953,1.035.953-.426,2.015,3.2,3.5,10.286.883,10.286.883A26.7,26.7,0,0,0,25.334,39.3c3.286-4.1,4.926-8.442,3.893-13.968-.538-2.879-5.037-5.56-8.233-6.631a18.152,18.152,0,0,0-6.373-.827,12.79,12.79,0,0,0-3.091.438,9.409,9.409,0,0,0-2.546,1.265s-.409-.1-.524-.317.063-.559.063-.559a13.45,13.45,0,0,1,1.777-1.5,17.985,17.985,0,0,1,2.2-1.264s6.98-5.789,8.889-8.222a9.216,9.216,0,0,0,2.1-4.084s.664-3.658-4.069-3.845S6.967,4.233,6.967,4.233a1.537,1.537,0,0,1-1.545.073C4.549,3.879,5.285,3.446,5.285,3.446Z" transform="translate(318.731 5304)" fill="#4239bc"/>
    <circle id="Эллипс_102" data-name="Эллипс 102" cx="5" cy="5" r="5" transform="translate(364 5341)" fill="#4239bc"/>
  </g>
</svg>
